<?xml version="1.0" standalone="no"?>
<!DOCTYPE svg PUBLIC "-//W3C//DTD SVG 20010904//EN"
 "http://www.w3.org/TR/2001/REC-SVG-20010904/DTD/svg10.dtd">
<svg version="1.0" xmlns="http://www.w3.org/2000/svg"
 width="200pt" height="100.000000pt" viewBox="0 0 700 350"
 preserveAspectRatio="xMidYMid meet">

<g transform="translate(0.000000,334.000000) scale(0.100000,-0.100000)"
fill="#f0f1f3" >
<path d="M3063 2018 c-14 -17 -178 -347 -187 -374 -6 -20 -2 -22 36 -27 38 -4
46 -1 69 24 23 27 31 29 95 29 l70 0 23 -40 c12 -22 25 -40 29 -41 4 0 26 -2
48 -5 24 -3 45 -1 48 5 6 9 -171 370 -206 419 -12 18 -17 20 -25 10z m37 -204
c29 -68 27 -74 -24 -74 -25 0 -47 4 -50 8 -5 9 39 112 48 112 3 0 14 -21 26
-46z"/>
<path d="M4537 2023 c-4 -3 -7 -105 -7 -225 l0 -218 55 0 54 0 3 96 3 97 79
-97 79 -96 60 0 59 0 -18 28 c-10 15 -48 66 -86 114 -37 47 -68 89 -68 93 0 4
34 49 76 101 42 51 73 98 69 104 -3 5 -24 10 -47 10 -43 0 -45 -2 -151 -118
-26 -28 -50 -52 -52 -52 -3 0 -5 33 -5 73 0 43 -5 78 -12 85 -13 13 -80 17
-91 5z"/>
<path d="M3747 1964 c-4 -4 -7 -27 -7 -51 0 -39 -2 -43 -26 -43 -23 0 -25 -3
-22 -37 2 -31 7 -39 26 -41 21 -3 22 -7 22 -108 l0 -104 45 0 45 0 0 74 c0
103 8 134 34 138 17 2 21 10 21 38 0 28 -4 35 -25 40 -21 5 -26 13 -30 50 -5
43 -6 45 -40 48 -20 2 -39 0 -43 -4z"/>
<path d="M4003 1861 c-55 -26 -83 -71 -83 -136 0 -91 52 -142 154 -152 40 -3
60 0 95 19 64 33 86 68 86 133 0 57 -18 91 -67 128 -38 29 -132 33 -185 8z
m136 -87 c12 -15 21 -37 21 -49 0 -37 -37 -75 -72 -75 -44 0 -68 25 -68 72 0
73 76 106 119 52z"/>
<path d="M5034 1861 c-75 -34 -106 -127 -68 -206 26 -55 53 -67 151 -64 65 2
91 7 109 22 32 25 30 31 -11 46 -30 10 -37 10 -51 -3 -24 -25 -77 -20 -104 9
-13 14 -22 27 -19 29 2 2 54 6 114 9 61 3 111 6 113 6 2 1 0 18 -4 39 -19 110
-123 161 -230 113z m120 -67 c28 -27 18 -34 -50 -34 -70 0 -81 13 -33 37 33
17 64 16 83 -3z"/>
<path d="M3345 1843 c-8 -33 4 -202 17 -226 22 -42 105 -53 155 -21 28 18 33
18 33 -1 0 -11 12 -15 45 -15 l45 0 0 145 0 145 -45 0 c-40 0 -45 -3 -51 -26
-4 -14 -4 -49 -1 -77 9 -77 -3 -120 -36 -131 -47 -17 -62 9 -64 112 0 48 -2
95 -2 105 -1 13 -10 17 -45 17 -39 0 -45 -3 -51 -27z"/>
<path d="M5290 1858 c0 -7 26 -65 58 -128 l57 -115 37 -1 c40 -1 53 9 84 66
10 19 21 37 24 40 3 3 14 25 24 50 10 25 23 53 28 64 7 13 6 21 -4 27 -40 26
-72 1 -104 -81 -15 -39 -30 -73 -34 -75 -4 -2 -21 31 -39 74 -33 82 -43 91
-103 91 -16 0 -28 -5 -28 -12z"/>
<path d="M1865 1811 c-6 -5 -39 -19 -75 -32 -36 -12 -71 -27 -79 -33 -7 -6
-41 -16 -75 -23 l-61 -12 55 5 c30 3 126 9 212 13 87 4 160 10 163 13 4 3 -32
3 -78 1 -102 -7 -119 5 -67 49 19 15 30 28 24 28 -5 0 -14 -4 -19 -9z"/>
<path d="M2423 1738 c-12 -4 -6 -7 17 -7 26 -1 31 -4 20 -11 -11 -7 -2 -10 33
-10 26 0 63 -7 82 -14 35 -15 45 -10 23 12 -15 15 -2 29 32 34 14 2 -23 4 -82
3 -60 0 -116 -3 -125 -7z"/>
<path d="M1538 1703 c6 -2 18 -2 25 0 6 3 1 5 -13 5 -14 0 -19 -2 -12 -5z"/>
<path d="M2318 1703 c12 -2 30 -2 40 0 9 3 -1 5 -23 4 -22 0 -30 -2 -17 -4z"/>
<path d="M1498 1693 c7 -3 16 -2 19 1 4 3 -2 6 -13 5 -11 0 -14 -3 -6 -6z"/>
<path d="M2090 1678 c-123 -20 -263 -51 -195 -42 22 2 52 7 68 10 32 6 37 -11
6 -21 -11 -4 -19 -9 -16 -11 2 -2 20 3 40 11 20 8 47 15 59 15 16 -1 2 -12
-44 -36 -110 -56 -77 -48 45 12 61 30 141 61 177 68 62 14 63 14 20 14 -25 0
-97 -9 -160 -20z"/>
<path d="M1805 1620 c-14 -6 -15 -9 -5 -10 9 -1 5 -5 -9 -11 -13 -5 -31 -7
-40 -4 -9 2 -23 0 -31 -6 -12 -8 -9 -9 10 -4 33 8 5 -10 -30 -19 -19 -6 -21
-5 -10 3 21 15 0 13 -29 -3 -20 -11 -21 -14 -7 -19 10 -4 15 -3 11 3 -3 6 -2
10 4 10 5 0 12 -4 15 -9 3 -5 17 -11 30 -13 19 -4 26 0 30 19 7 26 41 32 50 7
9 -22 24 -9 24 22 0 14 6 30 13 35 18 11 0 10 -26 -1z"/>
<path d="M2500 1615 c-8 -2 -32 -7 -54 -10 -55 -9 -32 -28 43 -35 59 -6 59 -5
63 22 5 29 -5 32 -52 23z"/>
<path d="M2220 1561 c-83 -55 -145 -181 -174 -351 l-12 -74 -40 -10 c-45 -12
-602 -15 -651 -4 -61 14 -34 -11 35 -32 163 -49 539 -54 705 -9 l37 10 -30 25
c-23 20 -30 34 -30 62 0 45 5 52 53 76 62 32 66 43 24 77 -22 18 -34 35 -30
44 7 20 20 19 54 -6 42 -30 65 -83 73 -168 10 -109 29 -128 21 -21 -6 90 -2
98 18 30 7 -24 17 -45 23 -47 7 -2 24 10 40 26 16 17 42 33 59 37 27 6 44 19
45 34 0 3 -10 6 -23 6 -12 1 -47 13 -77 27 l-55 25 53 -5 52 -6 0 36 c0 19 3
43 6 52 6 14 0 14 -37 -5 l-44 -23 20 23 c18 22 17 21 -20 -3 -55 -37 -62 -34
-26 15 37 51 38 74 5 112 -20 23 -31 27 -55 22 -38 -7 -38 9 1 22 57 20 132
-20 181 -96 41 -65 36 -41 -6 28 -19 32 -35 64 -35 72 0 8 -6 16 -12 17 -92
14 -103 12 -148 -18z m29 -106 c0 -26 -2 -27 -10 -10 -6 14 -7 5 -3 -29 4 -33
2 -46 -5 -41 -6 3 -11 -1 -11 -11 0 -41 -18 5 -25 62 -6 57 -5 63 16 78 22 15
24 15 31 -1 3 -10 7 -31 7 -48z"/>
<path d="M1894 1544 c-18 -14 -18 -14 6 -3 31 14 36 19 24 19 -6 0 -19 -7 -30
-16z"/>
<path d="M1605 1540 c-3 -6 1 -7 9 -4 18 7 21 14 7 14 -6 0 -13 -4 -16 -10z"/>
<path d="M2300 1523 c8 -3 27 -12 43 -20 15 -7 27 -11 27 -9 0 8 -58 36 -72
35 -9 0 -8 -2 2 -6z"/>
<path d="M1740 1493 l-25 -13 25 1 c14 0 34 4 44 8 20 8 20 8 0 12 -10 3 -30
-1 -44 -8z"/>
<path d="M1573 1473 c15 -2 39 -2 55 0 15 2 2 4 -28 4 -30 0 -43 -2 -27 -4z"/>
<path d="M3932 1448 c-19 -19 -16 -173 4 -193 19 -19 41 -6 46 28 2 12 9 21
16 19 27 -5 81 27 88 52 9 36 -2 73 -25 85 -30 16 -116 22 -129 9z m103 -68
c0 -20 -6 -26 -27 -28 -25 -3 -28 0 -28 28 0 28 3 31 28 28 21 -2 27 -8 27
-28z"/>
<path d="M4134 1447 c-2 -7 -3 -58 -2 -113 l3 -99 73 -3 c66 -3 72 -1 72 17 0
17 -8 20 -47 23 l-48 3 -3 93 c-3 84 -4 92 -23 92 -11 0 -22 -6 -25 -13z"/>
<path d="M4310 1362 c0 -120 11 -137 92 -137 76 0 90 22 86 139 -3 83 -5 91
-23 91 -18 0 -20 -8 -25 -89 -4 -70 -9 -91 -22 -100 -13 -8 -23 -8 -35 0 -14
9 -19 30 -23 100 -5 83 -7 89 -27 92 -23 3 -23 1 -23 -96z"/>
<path d="M4574 1446 c-48 -34 -34 -86 31 -118 29 -14 45 -28 45 -40 0 -28 -28
-33 -58 -11 -29 21 -52 20 -52 -3 0 -24 45 -45 91 -42 32 2 47 9 62 30 29 38
12 72 -48 98 -25 11 -45 26 -45 35 0 8 2 15 4 15 2 0 11 3 19 6 8 3 21 -2 30
-10 17 -17 47 -11 47 9 0 36 -89 58 -126 31z"/>
<path d="M1282 1418 c-1 -13 8 -49 19 -80 11 -32 17 -63 13 -69 -9 -15 92 -7
108 9 6 6 13 32 15 59 6 56 -9 75 -72 92 -62 17 -80 14 -83 -11z"/>
<path d="M1800 1411 c-65 -6 -69 -12 -17 -25 32 -8 33 -11 7 -78 -27 -73 -26
-79 13 -71 52 10 85 31 117 74 34 48 45 78 33 89 -12 13 -80 18 -153 11z"/>
<path d="M1565 1402 l-50 -5 45 -11 c45 -12 45 -12 45 -57 0 -24 -4 -57 -8
-72 -7 -24 -5 -28 10 -25 19 3 49 81 55 141 3 36 -3 38 -97 29z"/>
<path d="M2884 1385 c-4 -8 -4 -22 -1 -29 7 -18 137 -22 594 -22 318 1 342 4
317 44 -10 16 -48 17 -458 20 -391 2 -447 0 -452 -13z"/>
<path d="M4754 1375 c-4 -8 -4 -22 0 -30 5 -13 60 -15 415 -15 364 0 411 2
426 16 37 37 21 39 -414 42 -368 2 -422 0 -427 -13z"/>
<path d="M2443 1330 c0 -25 2 -35 4 -22 2 12 2 32 0 45 -2 12 -4 2 -4 -23z"/>
<path d="M2525 1295 c-59 -19 -70 -27 -77 -51 -4 -15 -6 -30 -3 -32 4 -4 165
97 165 104 0 6 -9 4 -85 -21z"/>
<path d="M2158 1224 c-21 -19 -38 -38 -38 -42 0 -5 17 -18 39 -30 l38 -22 6
52 c9 74 -1 83 -45 42z"/>
</g>
</svg>
