<?xml version="1.0" encoding="utf-8"?>
<!-- Generator: Adobe Illustrator 24.1.2, SVG Export Plug-In . SVG Version: 6.00 Build 0)  -->
<svg version="1.1" id="Слой_1" xmlns="http://www.w3.org/2000/svg" xmlns:xlink="http://www.w3.org/1999/xlink" x="0px" y="0px"
	 width="200pt" height="100pt" viewBox="0 0 700 530" xml:space="preserve">
<style type="text/css">
	.st0{fill:url(#SVGID_1_);}
	.st1{fill:url(#SVGID_2_);}
	.st2{fill:url(#SVGID_3_);}
	.st3{fill:url(#SVGID_4_);}
	.st4{fill:url(#SVGID_5_);}
	.st5{fill:url(#SVGID_6_);}
	.st6{fill:url(#SVGID_7_);}
	.st7{fill:url(#SVGID_8_);}
	.st8{font-family:'Tahoma-Bold';}
	.st9{font-size:49.3352px;}
	.st10{fill:url(#SVGID_9_);}
	.st11{fill:url(#SVGID_10_);}
	.st12{fill:url(#SVGID_11_);}
	.st13{fill:url(#SVGID_12_);}
	.st14{fill:url(#SVGID_13_);}
	.st15{fill:url(#SVGID_14_);}
	.st16{fill:url(#SVGID_15_);}
	.st17{font-size:26.5242px;}
	.st18{fill:url(#SVGID_16_);}
	.st19{fill:url(#SVGID_17_);}
	.st20{fill:url(#SVGID_18_);}
	.st21{fill:url(#SVGID_19_);}
	.st22{fill:#ffffff;}
	.st23{fill:#ffffff;}
</style>
<g>
	<linearGradient id="SVGID_1_" gradientUnits="userSpaceOnUse" x1="29.2405" y1="293.323" x2="123.0183" y2="200.8786">
		<stop  offset="0" style="stop-color:#ffffff"/>
		<stop  offset="0.2157" style="stop-color:#ffffff"/>
		<stop  offset="0.2294" style="stop-color:#ffffff"/>
		<stop  offset="0.2607" style="stop-color:#ffffff"/>
		<stop  offset="0.2937" style="stop-color:#ffffff"/>
		<stop  offset="0.3284" style="stop-color:#ffffff"/>
		<stop  offset="0.3652" style="stop-color:#ffffff"/>
		<stop  offset="0.4051" style="stop-color:#ffffff"/>
		<stop  offset="0.4503" style="stop-color:#ffffff"/>
		<stop  offset="0.5127" style="stop-color:#ffffff"/>
		<stop  offset="0.5867" style="stop-color:#ffffff"/>
		<stop  offset="0.6353" style="stop-color:#ffffff"/>
		<stop  offset="0.6765" style="stop-color:#ffffff"/>
		<stop  offset="0.7137" style="stop-color:#ffffff"/>
		<stop  offset="0.7481" style="stop-color:#ffffff"/>
		<stop  offset="0.7805" style="stop-color:#ffffff"/>
		<stop  offset="0.8107" style="stop-color:#ffffff"/>
		<stop  offset="0.8299" style="stop-color:#ffffff"/>
		<stop  offset="0.9103" style="stop-color:#ffffff"/>
		<stop  offset="0.9692" style="stop-color:#ffffff"/>
		<stop  offset="1" style="stop-color:#ffffff"/>
	</linearGradient>
	<path class="st0" d="M69.52,250c0,0-17.11,0.88-21.04,4.26c-5.59,4.81-12.3,8.3-17.48,10.37c-5.19,2.07-4.59,8.15-4.59,8.15
		l0.89,5.48c0,0-0.89-7.11,0.15-7.56c1.01-0.43,25.69,0.26,38.22,4.79c0.72,0.26,1.36,0.72,1.86,1.3c2.74,3.2,1.99,4.57,1.99,4.57
		s2.67-5.78-7.26-7.85s-24.59-4.15-34.07-4c0.74-2.52,2.07-4,6.22-5.19c3.34-0.96,9.31-5.1,11.42-6.55c0.44-0.3,0.84-0.66,1.21-1.04
		C48.4,255.35,53.46,251.61,69.52,250z"/>
	<linearGradient id="SVGID_2_" gradientUnits="userSpaceOnUse" x1="32.4367" y1="296.5653" x2="126.2145" y2="204.1209">
		<stop  offset="0" style="stop-color:#ffffff"/>
		<stop  offset="0.2157" style="stop-color:#ffffff"/>
		<stop  offset="0.2294" style="stop-color:#ffffff"/>
		<stop  offset="0.2607" style="stop-color:#ffffff"/>
		<stop  offset="0.2937" style="stop-color:#ffffff"/>
		<stop  offset="0.3284" style="stop-color:#ffffff"/>
		<stop  offset="0.3652" style="stop-color:#ffffff"/>
		<stop  offset="0.4051" style="stop-color:#ffffff"/>
		<stop  offset="0.4503" style="stop-color:#ffffff"/>
		<stop  offset="0.5127" style="stop-color:#ffffff"/>
		<stop  offset="0.5867" style="stop-color:#ffffff"/>
		<stop  offset="0.6353" style="stop-color:#ffffff"/>
		<stop  offset="0.6765" style="stop-color:#ffffff"/>
		<stop  offset="0.7137" style="stop-color:#ffffff"/>
		<stop  offset="0.7481" style="stop-color:#ffffff"/>
		<stop  offset="0.7805" style="stop-color:#ffffff"/>
		<stop  offset="0.8107" style="stop-color:#ffffff"/>
		<stop  offset="0.8299" style="stop-color:#ffffff"/>
		<stop  offset="0.9103" style="stop-color:#ffffff"/>
		<stop  offset="0.9692" style="stop-color:#ffffff"/>
		<stop  offset="1" style="stop-color:#ffffff"/>
	</linearGradient>
	<path class="st1" d="M35.67,271.67c0,0,21.64,2.26,29.43,4.87c1.51,0.51,2.69,1.71,3.12,3.24c0.66,2.33,0.4,5.27-0.04,7.13
		c-0.45,1.9-1.97,3.35-3.88,3.75c-4.45,0.94-13.51,0.85-23.46-3.05c-10.69-3.11-10.17-15.94-10.17-15.94s-0.72,18.44,26.83,17.67
		c0.13-3-4.85-10.07-7.24-13.29c-0.79-1.06-1.94-1.79-3.24-2.06L35.67,271.67z"/>
	<linearGradient id="SVGID_3_" gradientUnits="userSpaceOnUse" x1="52.8999" y1="317.3237" x2="146.6777" y2="224.8792">
		<stop  offset="0" style="stop-color:#ffffff"/>
		<stop  offset="0.2157" style="stop-color:#ffffff"/>
		<stop  offset="0.2294" style="stop-color:#ffffff"/>
		<stop  offset="0.2607" style="stop-color:#ffffff"/>
		<stop  offset="0.2937" style="stop-color:#ffffff"/>
		<stop  offset="0.3284" style="stop-color:#ffffff"/>
		<stop  offset="0.3652" style="stop-color:#ffffff"/>
		<stop  offset="0.4051" style="stop-color:#ffffff"/>
		<stop  offset="0.4503" style="stop-color:#ffffff"/>
		<stop  offset="0.5127" style="stop-color:#ffffff"/>
		<stop  offset="0.5867" style="stop-color:#ffffff"/>
		<stop  offset="0.6353" style="stop-color:#ffffff"/>
		<stop  offset="0.6765" style="stop-color:#ffffff"/>
		<stop  offset="0.7137" style="stop-color:#ffffff"/>
		<stop  offset="0.7481" style="stop-color:#ffffff"/>
		<stop  offset="0.7805" style="stop-color:#ffffff"/>
		<stop  offset="0.8107" style="stop-color:#ffffff"/>
		<stop  offset="0.8299" style="stop-color:#ffffff"/>
		<stop  offset="0.9103" style="stop-color:#ffffff"/>
		<stop  offset="0.9692" style="stop-color:#ffffff"/>
		<stop  offset="1" style="stop-color:#ffffff"/>
	</linearGradient>
	<path class="st2" d="M182.14,245.31c-5.48-5.06-14.12-3.58-14.72-1.55c-0.6,2.03,2.7,1.55,2.7,1.55s-4.56-3.37,3.68-2.38
		c8.24,0.99,7.29,3.91,7.29,3.91s-1.2,0.6-2.7,0.45c-1.5-0.15-2.85-0.53-4.81-0.45c-1.95,0.08-2.93,1.16-2.93,1.16h-8.83l1.15-5.19
		l1.22,0.96c-0.33-2.72,1.15-5.33,2.04-7.33c-3.78,2.44-6.33,11.67-6.33,12.56h-2.22l1.44-6.78l-2.44,5.89c0,0-0.67,0-54.44-0.44
		c12.67-14.67,29.89-12,29.89-12l26.11-0.78c0,0-24.22-1.44-34.44,0c-10.22,1.44-24.44,9.89-24.44,9.89L92,246.56c0,0,0-0.02,0,1.9
		c-16.23,1.8-36.39,8.11-36.39,8.11c34.52-9.88,90.18-8.08,90.18-8.08s9.77,0.15,16.08,1.09c-16.6,0.19-59.64,8.75-59.64,8.75
		l-12.92,4.96c0,0-9.39,4.06-12.54,6.54c-3.15,2.48,4.13,2.18,4.13,2.18H95l2.18-0.6l7.96-2.93c0,0,7.14-3,18.63-9.62
		c11.49-6.61,28.77-7.51,38.23-7.89c9.46-0.38,12.69,3.68,12.69,3.68l-3.15-5.56C171.55,249.09,186.72,249.58,182.14,245.31z
		 M94,271H77.39c0,0,14.11-11.06,39.94-14.28C109.44,261,94,271,94,271z M99.5,270h-2.72c0,0,14.5-10.89,28.5-13.22L99.5,270z"/>
	<linearGradient id="SVGID_4_" gradientUnits="userSpaceOnUse" x1="49.7003" y1="314.0779" x2="143.4781" y2="221.6335">
		<stop  offset="0" style="stop-color:#ffffff"/>
		<stop  offset="0.2157" style="stop-color:#ffffff"/>
		<stop  offset="0.2294" style="stop-color:#ffffff"/>
		<stop  offset="0.2607" style="stop-color:#ffffff"/>
		<stop  offset="0.2937" style="stop-color:#ffffff"/>
		<stop  offset="0.3284" style="stop-color:#ffffff"/>
		<stop  offset="0.3652" style="stop-color:#ffffff"/>
		<stop  offset="0.4051" style="stop-color:#ffffff"/>
		<stop  offset="0.4503" style="stop-color:#ffffff"/>
		<stop  offset="0.5127" style="stop-color:#ffffff"/>
		<stop  offset="0.5867" style="stop-color:#ffffff"/>
		<stop  offset="0.6353" style="stop-color:#ffffff"/>
		<stop  offset="0.6765" style="stop-color:#ffffff"/>
		<stop  offset="0.7137" style="stop-color:#ffffff"/>
		<stop  offset="0.7481" style="stop-color:#ffffff"/>
		<stop  offset="0.7805" style="stop-color:#ffffff"/>
		<stop  offset="0.8107" style="stop-color:#ffffff"/>
		<stop  offset="0.8299" style="stop-color:#ffffff"/>
		<stop  offset="0.9103" style="stop-color:#ffffff"/>
		<stop  offset="0.9692" style="stop-color:#ffffff"/>
		<stop  offset="1" style="stop-color:#ffffff"/>
	</linearGradient>
	<path class="st3" d="M72.72,278l15.52,0c0,0-2.01,12.91-3.58,15c-2.46,0-2.46,0-2.46,0s3.81-12.31,0.45-13.21
		C79.29,278.9,72.72,278,72.72,278z"/>
	<linearGradient id="SVGID_5_" gradientUnits="userSpaceOnUse" x1="59.819" y1="324.3426" x2="153.5968" y2="231.8981">
		<stop  offset="0" style="stop-color:#ffffff"/>
		<stop  offset="0.2157" style="stop-color:#ffffff"/>
		<stop  offset="0.2294" style="stop-color:#ffffff"/>
		<stop  offset="0.2607" style="stop-color:#ffffff"/>
		<stop  offset="0.2937" style="stop-color:#ffffff"/>
		<stop  offset="0.3284" style="stop-color:#ffffff"/>
		<stop  offset="0.3652" style="stop-color:#ffffff"/>
		<stop  offset="0.4051" style="stop-color:#ffffff"/>
		<stop  offset="0.4503" style="stop-color:#ffffff"/>
		<stop  offset="0.5127" style="stop-color:#ffffff"/>
		<stop  offset="0.5867" style="stop-color:#ffffff"/>
		<stop  offset="0.6353" style="stop-color:#ffffff"/>
		<stop  offset="0.6765" style="stop-color:#ffffff"/>
		<stop  offset="0.7137" style="stop-color:#ffffff"/>
		<stop  offset="0.7481" style="stop-color:#ffffff"/>
		<stop  offset="0.7805" style="stop-color:#ffffff"/>
		<stop  offset="0.8107" style="stop-color:#ffffff"/>
		<stop  offset="0.8299" style="stop-color:#ffffff"/>
		<stop  offset="0.9103" style="stop-color:#ffffff"/>
		<stop  offset="0.9692" style="stop-color:#ffffff"/>
		<stop  offset="1" style="stop-color:#ffffff"/>
	</linearGradient>
	<path class="st4" d="M94.04,278h19.19c0,0,3.79,1.64-3.7,9.93c-4.96,5.48-12.16,5.48-12.16,5.48l3.27-9.41c0,0,2.22-4.81-1.48-4.89
		S94.04,278,94.04,278z"/>
	<linearGradient id="SVGID_6_" gradientUnits="userSpaceOnUse" x1="83.0822" y1="347.9413" x2="176.86" y2="255.4969">
		<stop  offset="0" style="stop-color:#ffffff"/>
		<stop  offset="0.2157" style="stop-color:#ffffff"/>
		<stop  offset="0.2294" style="stop-color:#ffffff"/>
		<stop  offset="0.2607" style="stop-color:#ffffff"/>
		<stop  offset="0.2937" style="stop-color:#ffffff"/>
		<stop  offset="0.3284" style="stop-color:#ffffff"/>
		<stop  offset="0.3652" style="stop-color:#ffffff"/>
		<stop  offset="0.4051" style="stop-color:#ffffff"/>
		<stop  offset="0.4503" style="stop-color:#ffffff"/>
		<stop  offset="0.5127" style="stop-color:#ffffff"/>
		<stop  offset="0.5867" style="stop-color:#ffffff"/>
		<stop  offset="0.6353" style="stop-color:#ffffff"/>
		<stop  offset="0.6765" style="stop-color:#ffffff"/>
		<stop  offset="0.7137" style="stop-color:#ffffff"/>
		<stop  offset="0.7481" style="stop-color:#ffffff"/>
		<stop  offset="0.7805" style="stop-color:#ffffff"/>
		<stop  offset="0.8107" style="stop-color:#ffffff"/>
		<stop  offset="0.8299" style="stop-color:#ffffff"/>
		<stop  offset="0.9103" style="stop-color:#ffffff"/>
		<stop  offset="0.9692" style="stop-color:#ffffff"/>
		<stop  offset="1" style="stop-color:#ffffff"/>
	</linearGradient>
	<path class="st5" d="M136,290.33v11.56c0,0-5.67-1.78-7.56-4.78C132.1,293.67,136,290.33,136,290.33z"/>
	<linearGradient id="SVGID_7_" gradientUnits="userSpaceOnUse" x1="65.8808" y1="330.4919" x2="159.6586" y2="238.0474">
		<stop  offset="0" style="stop-color:#ffffff"/>
		<stop  offset="0.2157" style="stop-color:#ffffff"/>
		<stop  offset="0.2294" style="stop-color:#ffffff"/>
		<stop  offset="0.2607" style="stop-color:#ffffff"/>
		<stop  offset="0.2937" style="stop-color:#ffffff"/>
		<stop  offset="0.3284" style="stop-color:#ffffff"/>
		<stop  offset="0.3652" style="stop-color:#ffffff"/>
		<stop  offset="0.4051" style="stop-color:#ffffff"/>
		<stop  offset="0.4503" style="stop-color:#ffffff"/>
		<stop  offset="0.5127" style="stop-color:#ffffff"/>
		<stop  offset="0.5867" style="stop-color:#ffffff"/>
		<stop  offset="0.6353" style="stop-color:#ffffff"/>
		<stop  offset="0.6765" style="stop-color:#ffffff"/>
		<stop  offset="0.7137" style="stop-color:#ffffff"/>
		<stop  offset="0.7481" style="stop-color:#ffffff"/>
		<stop  offset="0.7805" style="stop-color:#ffffff"/>
		<stop  offset="0.8107" style="stop-color:#ffffff"/>
		<stop  offset="0.8299" style="stop-color:#ffffff"/>
		<stop  offset="0.9103" style="stop-color:#ffffff"/>
		<stop  offset="0.9692" style="stop-color:#ffffff"/>
		<stop  offset="1" style="stop-color:#ffffff"/>
	</linearGradient>
	<path class="st6" d="M147.78,265.69c16.11,9.57,8.44,30.54,8.44,30.54L186,279.33c0,0-13.44,4.67-27.11,10.11
		c1.11-15.56-4.89-19.83-4.89-19.83s-2.92-4.67-2.19-6.22c0.72-1.56,2.75-1.83,3.53-1.5c1.33,3.11,9.78,1.64,9.78,1.64l0.56,5.36
		l0.33-9.44l11.89-1.89l-20.11,1.89l-4.78,1.89l-2.11,1.67c0,0-6.22-3.75-12.22,0c-15.56,8.44-17.22,38.89-17.22,38.89
		S108.33,304,82,304.44c-26.33,0.44-48-9.78-48-9.78c32.11,23.67,97.56,11.78,95,11.11s-5.78-4.78-5.78-4.78s0,0,0.67-7.78
		c10.11-4.56,9-7,9-7s-9.11-4.89-4.33-7.33c5.56,1,9.44,9.89,9.44,9.89l1.56,16.33c0,0,19.11-0.89,17.78-23.7
		c-3.44-18.25-21.56-15.08-21.56-15.08S140.56,261,147.78,265.69z M142,267.56c17.22,2.89,14.67,18.19,13.78,23
		C149.89,290.22,143,286,143,286h9.11l1-7.96l-12.67,4.41c0,0,1.22-2.11,4.44-6.22C148.11,272.11,145.89,270.89,142,267.56z
		 M143.89,299.67c2.68-0.98,5.89-5.22,5.89-5.22s0.89-0.56,5-1.22c-6.56,12.22-13.33,10.56-13.33,10.56l-1-13.44L143.89,299.67z
		 M139.78,267.83c0,0,1.22,9.28-2.89,15.17c-2.33-10.67-2.89-12.33-2.89-12.33L139.78,267.83z"/>
	<linearGradient id="SVGID_8_" gradientUnits="userSpaceOnUse" x1="47.1803" y1="311.5216" x2="140.9581" y2="219.0771">
		<stop  offset="0" style="stop-color:#ffffff"/>
		<stop  offset="0.2157" style="stop-color:#ffffff"/>
		<stop  offset="0.2294" style="stop-color:#ffffff"/>
		<stop  offset="0.2607" style="stop-color:#ffffff"/>
		<stop  offset="0.2937" style="stop-color:#ffffff"/>
		<stop  offset="0.3284" style="stop-color:#ffffff"/>
		<stop  offset="0.3652" style="stop-color:#ffffff"/>
		<stop  offset="0.4051" style="stop-color:#ffffff"/>
		<stop  offset="0.4503" style="stop-color:#ffffff"/>
		<stop  offset="0.5127" style="stop-color:#ffffff"/>
		<stop  offset="0.5867" style="stop-color:#ffffff"/>
		<stop  offset="0.6353" style="stop-color:#ffffff"/>
		<stop  offset="0.6765" style="stop-color:#ffffff"/>
		<stop  offset="0.7137" style="stop-color:#ffffff"/>
		<stop  offset="0.7481" style="stop-color:#ffffff"/>
		<stop  offset="0.7805" style="stop-color:#ffffff"/>
		<stop  offset="0.8107" style="stop-color:#ffffff"/>
		<stop  offset="0.8299" style="stop-color:#ffffff"/>
		<stop  offset="0.9103" style="stop-color:#ffffff"/>
		<stop  offset="0.9692" style="stop-color:#ffffff"/>
		<stop  offset="1" style="stop-color:#ffffff"/>
	</linearGradient>
	<path class="st7" d="M93.53,266.65l1-0.12l1.24-0.63l0.24-1.14v-1.71l0.71-0.29l2.41-0.76h1.06l0.12,0.76l0.06,0.85l0.29,1.03
		l0.76,0.06l1-0.12l0.82-0.97c0,0,0.06-0.79-0.94-1.09c-1-0.29,0.29-1.24,0.65-2.59c-6.76,0.59-19.41,8.24-19.41,8.24l7.41-3.18
		h0.59l0.35,0.9l0.88,0.57L93.53,266.65z"/>
</g>
<g>
	<text transform="matrix(1.1243 0 0 1 191.8345 263.1318)" class="st8 st9"></text>
	<g>
		<linearGradient id="SVGID_9_" gradientUnits="userSpaceOnUse" x1="314.7178" y1="209.4282" x2="314.7178" y2="281.4955">
			<stop  offset="0.269" style="stop-color:#ffffff"/>
			<stop  offset="0.3105" style="stop-color:#ffffff"/>
			<stop  offset="0.3788" style="stop-color:#ffffff"/>
			<stop  offset="0.4655" style="stop-color:#ffffff"/>
			<stop  offset="0.5661" style="stop-color:#ffffff"/>
			<stop  offset="0.6421" style="stop-color:#ffffff"/>
			<stop  offset="0.7009" style="stop-color:#ffffff"/>
			<stop  offset="0.744" style="stop-color:#ffffff"/>
			<stop  offset="0.7665" style="stop-color:#ffffff"/>
		</linearGradient>
		<path class="st10" d="M191.67,263.13l13.62-35.87h11.05l13.62,35.87h-10.43l-2.52-7.32h-12.68l-2.52,7.32H191.67z M214.8,249.3
			l-4.12-11.83l-4.12,11.83H214.8z"/>
		<linearGradient id="SVGID_10_" gradientUnits="userSpaceOnUse" x1="314.7178" y1="209.4282" x2="314.7178" y2="281.4955">
			<stop  offset="0.269" style="stop-color:#ffffff"/>
			<stop  offset="0.3105" style="stop-color:#ffffff"/>
			<stop  offset="0.3788" style="stop-color:#ffffff"/>
			<stop  offset="0.4655" style="stop-color:#ffffff"/>
			<stop  offset="0.5661" style="stop-color:#ffffff"/>
			<stop  offset="0.6421" style="stop-color:#ffffff"/>
			<stop  offset="0.7009" style="stop-color:#ffffff"/>
			<stop  offset="0.744" style="stop-color:#ffffff"/>
			<stop  offset="0.7665" style="stop-color:#ffffff"/>
		</linearGradient>
		<path class="st11" d="M261.02,263.13h-9.48v-2.99c-1.64,1.22-3.15,2.15-4.52,2.78c-1.37,0.63-3.01,0.95-4.9,0.95
			c-3.02,0-5.37-0.85-7.06-2.54c-1.69-1.69-2.53-4.24-2.53-7.65v-17.61h9.53v13.42c0,1.4,0.04,2.54,0.12,3.42
			c0.08,0.88,0.27,1.63,0.58,2.24c0.29,0.56,0.74,0.99,1.34,1.28s1.45,0.43,2.53,0.43c0.67,0,1.46-0.14,2.37-0.43
			c0.91-0.29,1.76-0.68,2.53-1.18v-19.18h9.48V263.13z"/>
		<linearGradient id="SVGID_11_" gradientUnits="userSpaceOnUse" x1="314.7178" y1="209.4282" x2="314.7178" y2="281.4955">
			<stop  offset="0.269" style="stop-color:#ffffff"/>
			<stop  offset="0.3105" style="stop-color:#ffffff"/>
			<stop  offset="0.3788" style="stop-color:#ffffff"/>
			<stop  offset="0.4655" style="stop-color:#ffffff"/>
			<stop  offset="0.5661" style="stop-color:#ffffff"/>
			<stop  offset="0.6421" style="stop-color:#ffffff"/>
			<stop  offset="0.7009" style="stop-color:#ffffff"/>
			<stop  offset="0.744" style="stop-color:#ffffff"/>
			<stop  offset="0.7665" style="stop-color:#ffffff"/>
		</linearGradient>
		<path class="st12" d="M279.26,263.66c-3.87,0-6.68-0.71-8.44-2.12c-1.76-1.41-2.64-3.73-2.64-6.94v-12.65h-3.63v-5.88h3.63v-7.73
			h9.48v7.73h9.13v5.88h-9.13v9.59c0,0.95,0.01,1.77,0.03,2.48c0.02,0.71,0.16,1.34,0.43,1.9c0.25,0.56,0.7,1.01,1.34,1.34
			c0.64,0.33,1.57,0.49,2.8,0.49c0.51,0,1.17-0.1,1.99-0.29c0.82-0.19,1.39-0.37,1.72-0.53h0.81v5.95
			c-1.03,0.24-2.12,0.43-3.28,0.57S280.94,263.66,279.26,263.66z"/>
		<linearGradient id="SVGID_12_" gradientUnits="userSpaceOnUse" x1="314.7178" y1="209.4282" x2="314.7178" y2="281.4955">
			<stop  offset="0.269" style="stop-color:#ffffff"/>
			<stop  offset="0.3105" style="stop-color:#ffffff"/>
			<stop  offset="0.3788" style="stop-color:#ffffff"/>
			<stop  offset="0.4655" style="stop-color:#ffffff"/>
			<stop  offset="0.5661" style="stop-color:#ffffff"/>
			<stop  offset="0.6421" style="stop-color:#ffffff"/>
			<stop  offset="0.7009" style="stop-color:#ffffff"/>
			<stop  offset="0.744" style="stop-color:#ffffff"/>
			<stop  offset="0.7665" style="stop-color:#ffffff"/>
		</linearGradient>
		<path class="st13" d="M319.2,249.62c0,4.45-1.37,7.95-4.1,10.52c-2.74,2.56-6.61,3.84-11.61,3.84c-4.96,0-8.82-1.28-11.58-3.84
			s-4.13-6.07-4.13-10.52c0-4.5,1.38-8.02,4.13-10.56c2.75-2.54,6.61-3.82,11.58-3.82c4.98,0,8.85,1.28,11.59,3.84
			C317.82,241.64,319.2,245.15,319.2,249.62z M309.47,249.67c0-1.61-0.15-2.94-0.45-4.01c-0.3-1.07-0.71-1.92-1.23-2.57
			c-0.56-0.67-1.19-1.14-1.89-1.41c-0.71-0.27-1.51-0.4-2.41-0.4c-0.85,0-1.62,0.12-2.3,0.35c-0.69,0.23-1.32,0.68-1.9,1.34
			c-0.54,0.63-0.97,1.49-1.3,2.58c-0.32,1.09-0.49,2.47-0.49,4.12s0.15,2.99,0.46,4.01c0.31,1.02,0.71,1.83,1.19,2.45
			c0.5,0.63,1.14,1.08,1.89,1.37c0.76,0.29,1.6,0.43,2.52,0.43c0.76,0,1.53-0.14,2.32-0.43s1.41-0.72,1.88-1.3
			c0.56-0.69,0.98-1.52,1.27-2.49S309.47,251.38,309.47,249.67z"/>
		<linearGradient id="SVGID_13_" gradientUnits="userSpaceOnUse" x1="314.7178" y1="209.4282" x2="314.7178" y2="281.4955">
			<stop  offset="0.269" style="stop-color:#ffffff"/>
			<stop  offset="0.3105" style="stop-color:#ffffff"/>
			<stop  offset="0.3788" style="stop-color:#ffffff"/>
			<stop  offset="0.4655" style="stop-color:#ffffff"/>
			<stop  offset="0.5661" style="stop-color:#ffffff"/>
			<stop  offset="0.6421" style="stop-color:#ffffff"/>
			<stop  offset="0.7009" style="stop-color:#ffffff"/>
			<stop  offset="0.744" style="stop-color:#ffffff"/>
			<stop  offset="0.7665" style="stop-color:#ffffff"/>
		</linearGradient>
		<path class="st14" d="M375.04,263.13H362.8l-11-14.57l-1.98,2.46v12.12h-10.13v-35.87h10.13v15.92l12.89-15.92h11.73l-14.38,16.65
			L375.04,263.13z"/>
		<linearGradient id="SVGID_14_" gradientUnits="userSpaceOnUse" x1="314.7178" y1="209.4282" x2="314.7178" y2="281.4955">
			<stop  offset="0.269" style="stop-color:#ffffff"/>
			<stop  offset="0.3105" style="stop-color:#ffffff"/>
			<stop  offset="0.3788" style="stop-color:#ffffff"/>
			<stop  offset="0.4655" style="stop-color:#ffffff"/>
			<stop  offset="0.5661" style="stop-color:#ffffff"/>
			<stop  offset="0.6421" style="stop-color:#ffffff"/>
			<stop  offset="0.7009" style="stop-color:#ffffff"/>
			<stop  offset="0.744" style="stop-color:#ffffff"/>
			<stop  offset="0.7665" style="stop-color:#ffffff"/>
		</linearGradient>
		<path class="st15" d="M392.68,263.85c-5.74,0-10.14-1.22-13.21-3.66c-3.06-2.44-4.59-5.92-4.59-10.43c0-4.42,1.43-7.94,4.28-10.57
			s6.84-3.95,11.97-3.95c4.66,0,8.16,1.12,10.51,3.35c2.35,2.23,3.52,5.43,3.52,9.59v3.04h-20.78c0.09,1.25,0.39,2.3,0.89,3.14
			c0.51,0.84,1.17,1.51,2,2.01c0.81,0.5,1.76,0.86,2.84,1.07c1.08,0.22,2.27,0.33,3.55,0.33c1.1,0,2.18-0.11,3.25-0.33
			c1.06-0.22,2.04-0.5,2.93-0.86c0.78-0.3,1.49-0.63,2.15-0.99c0.66-0.35,1.2-0.67,1.61-0.94h1v6.96c-0.78,0.27-1.48,0.53-2.13,0.76
			c-0.64,0.23-1.52,0.47-2.64,0.71c-1.03,0.24-2.09,0.43-3.18,0.57S394.25,263.85,392.68,263.85z M395.82,246.13
			c-0.05-1.78-0.52-3.14-1.39-4.07c-0.88-0.93-2.22-1.4-4.02-1.4c-1.84,0-3.28,0.49-4.32,1.47s-1.61,2.31-1.72,4H395.82z"/>
		<linearGradient id="SVGID_15_" gradientUnits="userSpaceOnUse" x1="314.7178" y1="209.4282" x2="314.7178" y2="281.4955">
			<stop  offset="0.269" style="stop-color:#ffffff"/>
			<stop  offset="0.3105" style="stop-color:#ffffff"/>
			<stop  offset="0.3788" style="stop-color:#ffffff"/>
			<stop  offset="0.4655" style="stop-color:#ffffff"/>
			<stop  offset="0.5661" style="stop-color:#ffffff"/>
			<stop  offset="0.6421" style="stop-color:#ffffff"/>
			<stop  offset="0.7009" style="stop-color:#ffffff"/>
			<stop  offset="0.744" style="stop-color:#ffffff"/>
			<stop  offset="0.7665" style="stop-color:#ffffff"/>
		</linearGradient>
		<path class="st16" d="M437.76,236.08l-15.36,36.98h-10.18l4.61-10.58l-11.16-26.4h9.97l6.39,16.96l5.99-16.96H437.76z"/>
	</g>
</g>
<g>
	<text transform="matrix(1.1243 0 0 1 276.6348 294.582)" class="st8 st17"></text>
	<g>
		<linearGradient id="SVGID_16_" gradientUnits="userSpaceOnUse" x1="315.7422" y1="264.5146" x2="315.7422" y2="304.3586">
			<stop  offset="0.269" style="stop-color:#ffffff"/>
			<stop  offset="0.3105" style="stop-color:#ffffff"/>
			<stop  offset="0.3788" style="stop-color:#ffffff"/>
			<stop  offset="0.4655" style="stop-color:#ffffff"/>
			<stop  offset="0.5661" style="stop-color:#ffffff"/>
			<stop  offset="0.6421" style="stop-color:#ffffff"/>
			<stop  offset="0.7009" style="stop-color:#ffffff"/>
			<stop  offset="0.744" style="stop-color:#ffffff"/>
			<stop  offset="0.7665" style="stop-color:#ffffff"/>
		</linearGradient>
		<path class="st18" d="M295.57,281.38c0,0.9-0.16,1.75-0.48,2.56s-0.78,1.49-1.38,2.03c-0.37,0.34-0.77,0.65-1.22,0.93
			c-0.44,0.29-0.93,0.53-1.46,0.73c-0.53,0.2-1.11,0.35-1.74,0.47c-0.63,0.11-1.33,0.17-2.1,0.17h-2.85v6.31h-5.45V275.3h8.42
			c1.25,0,2.33,0.1,3.24,0.3c0.91,0.2,1.73,0.52,2.47,0.96c0.82,0.48,1.45,1.13,1.89,1.94
			C295.34,279.31,295.57,280.27,295.57,281.38z M289.97,281.5c0-0.54-0.15-1.01-0.44-1.41c-0.29-0.39-0.64-0.66-1.05-0.81
			c-0.51-0.2-1.01-0.31-1.48-0.34s-1.11-0.04-1.92-0.04h-0.77v5.78h0.38c0.51,0,1,0,1.46-0.01c0.46-0.01,0.85-0.04,1.19-0.09
			c0.29-0.04,0.6-0.13,0.92-0.25s0.58-0.27,0.75-0.42c0.37-0.32,0.62-0.65,0.75-1C289.91,282.55,289.97,282.09,289.97,281.5z"/>
		<linearGradient id="SVGID_17_" gradientUnits="userSpaceOnUse" x1="315.7422" y1="264.5146" x2="315.7422" y2="304.3586">
			<stop  offset="0.269" style="stop-color:#ffffff"/>
			<stop  offset="0.3105" style="stop-color:#ffffff"/>
			<stop  offset="0.3788" style="stop-color:#ffffff"/>
			<stop  offset="0.4655" style="stop-color:#ffffff"/>
			<stop  offset="0.5661" style="stop-color:#ffffff"/>
			<stop  offset="0.6421" style="stop-color:#ffffff"/>
			<stop  offset="0.7009" style="stop-color:#ffffff"/>
			<stop  offset="0.744" style="stop-color:#ffffff"/>
			<stop  offset="0.7665" style="stop-color:#ffffff"/>
		</linearGradient>
		<path class="st19" d="M312.59,294.58h-14.47V275.3h5.45v15.61h9.03V294.58z"/>
		<linearGradient id="SVGID_18_" gradientUnits="userSpaceOnUse" x1="315.7422" y1="264.5146" x2="315.7422" y2="304.3586">
			<stop  offset="0.269" style="stop-color:#ffffff"/>
			<stop  offset="0.3105" style="stop-color:#ffffff"/>
			<stop  offset="0.3788" style="stop-color:#ffffff"/>
			<stop  offset="0.4655" style="stop-color:#ffffff"/>
			<stop  offset="0.5661" style="stop-color:#ffffff"/>
			<stop  offset="0.6421" style="stop-color:#ffffff"/>
			<stop  offset="0.7009" style="stop-color:#ffffff"/>
			<stop  offset="0.744" style="stop-color:#ffffff"/>
			<stop  offset="0.7665" style="stop-color:#ffffff"/>
		</linearGradient>
		<path class="st20" d="M323.59,294.98c-2.91,0-5.15-0.63-6.72-1.88c-1.57-1.25-2.35-3.08-2.35-5.49V275.3h5.45v12.03
			c0,1.34,0.28,2.34,0.85,2.99c0.57,0.66,1.49,0.98,2.77,0.98c1.25,0,2.17-0.32,2.76-0.95c0.59-0.63,0.88-1.64,0.88-3.03V275.3h5.45
			v12.3c0,2.37-0.76,4.2-2.29,5.47S326.59,294.98,323.59,294.98z"/>
		<linearGradient id="SVGID_19_" gradientUnits="userSpaceOnUse" x1="315.7422" y1="264.5146" x2="315.7422" y2="304.3586">
			<stop  offset="0.269" style="stop-color:#ffffff"/>
			<stop  offset="0.3105" style="stop-color:#ffffff"/>
			<stop  offset="0.3788" style="stop-color:#ffffff"/>
			<stop  offset="0.4655" style="stop-color:#ffffff"/>
			<stop  offset="0.5661" style="stop-color:#ffffff"/>
			<stop  offset="0.6421" style="stop-color:#ffffff"/>
			<stop  offset="0.7009" style="stop-color:#ffffff"/>
			<stop  offset="0.744" style="stop-color:#ffffff"/>
			<stop  offset="0.7665" style="stop-color:#ffffff"/>
		</linearGradient>
		<path class="st21" d="M343.2,294.93c-1.66,0-3.12-0.14-4.38-0.43c-1.26-0.28-2.42-0.64-3.5-1.06v-4.58h0.49
			c1.09,0.82,2.29,1.45,3.6,1.89c1.31,0.44,2.58,0.66,3.81,0.66c0.31,0,0.72-0.03,1.23-0.09s0.92-0.16,1.23-0.29
			c0.38-0.15,0.7-0.35,0.96-0.62c0.26-0.26,0.39-0.61,0.39-1.04c0-0.48-0.21-0.88-0.64-1.18c-0.43-0.3-0.94-0.52-1.53-0.66
			c-0.74-0.17-1.53-0.34-2.37-0.49c-0.84-0.16-1.62-0.34-2.35-0.57c-1.68-0.53-2.88-1.23-3.61-2.12s-1.09-2-1.09-3.34
			c0-1.8,0.86-3.27,2.58-4.38s3.86-1.68,6.44-1.68c1.29,0,2.57,0.12,3.85,0.35c1.28,0.23,2.42,0.55,3.43,0.95v4.4h-0.48
			c-0.81-0.61-1.79-1.13-2.95-1.55c-1.16-0.42-2.35-0.63-3.58-0.63c-0.48,0-0.9,0.03-1.28,0.09c-0.38,0.06-0.78,0.18-1.19,0.35
			c-0.34,0.14-0.63,0.34-0.88,0.62c-0.25,0.27-0.37,0.58-0.37,0.91c0,0.49,0.2,0.88,0.59,1.17c0.39,0.29,1.15,0.55,2.28,0.78
			c0.73,0.15,1.43,0.29,2.1,0.43c0.67,0.14,1.4,0.33,2.16,0.57c1.5,0.48,2.62,1.13,3.36,1.95c0.73,0.82,1.1,1.89,1.1,3.23
			c0,1.92-0.85,3.46-2.54,4.62C348.37,294.35,346.08,294.93,343.2,294.93z"/>
	</g>
</g>
<g>
	<path d="M269.93,285.78h-75.64c-1.2,0-2.18-0.98-2.18-2.18l0,0c0-1.2,0.98-2.18,2.18-2.18h75.64c1.2,0,2.18,0.98,2.18,2.18l0,0
		C272.11,284.8,271.13,285.78,269.93,285.78z"/>
	<path class="st22" d="M269.93,285.78h-75.64c-1.2,0-2.18-0.98-2.18-2.18l0,0c0-1.2,0.98-2.18,2.18-2.18h75.64
		c1.2,0,2.18,0.98,2.18,2.18l0,0C272.11,284.8,271.13,285.78,269.93,285.78z"/>
</g>
<g>
	<path d="M434.15,285.78h-75.64c-1.2,0-2.18-0.98-2.18-2.18l0,0c0-1.2,0.98-2.18,2.18-2.18h75.64c1.2,0,2.18,0.98,2.18,2.18l0,0
		C436.33,284.8,435.36,285.78,434.15,285.78z"/>
	<path class="st23" d="M434.15,285.78h-75.64c-1.2,0-2.18-0.98-2.18-2.18l0,0c0-1.2,0.98-2.18,2.18-2.18h75.64
		c1.2,0,2.18,0.98,2.18,2.18l0,0C436.33,284.8,435.36,285.78,434.15,285.78z"/>
</g>
</svg>
